M48
; DRILL file {KiCad 8.0.7} date 2025-02-18T12:37:01+0530
; FORMAT={-:-/ absolute / metric / decimal}
; #@! TF.CreationDate,2025-02-18T12:37:01+05:30
; #@! TF.GenerationSoftware,Kicad,Pcbnew,8.0.7
; #@! TF.FileFunction,Plated,1,2,PTH
FMAT,2
METRIC
; #@! TA.AperFunction,Plated,PTH,ComponentDrill
T1C0.800
; #@! TA.AperFunction,Plated,PTH,ComponentDrill
T2C0.900
; #@! TA.AperFunction,Plated,PTH,ComponentDrill
T3C1.000
; #@! TA.AperFunction,Plated,PTH,ComponentDrill
T4C1.100
%
G90
G05
T1
X196.44Y-100.78
X196.44Y-110.94
X201.9Y-100.84
X201.9Y-111.0
T2
X193.735Y-84.6
X193.86Y-92.6
X196.275Y-84.6
X196.4Y-92.6
T3
X142.8Y-109.645
X142.8Y-112.185
X142.8Y-114.725
X145.9Y-64.5
X145.9Y-67.04
X145.9Y-69.58
X153.475Y-109.75
X153.475Y-112.25
X158.0Y-64.6
X158.0Y-67.14
X158.0Y-69.68
X158.0Y-72.22
X158.0Y-74.76
X158.0Y-77.3
X158.0Y-79.84
X158.0Y-82.38
X158.0Y-84.92
X158.0Y-87.46
X158.0Y-90.0
X158.0Y-92.54
X158.0Y-95.08
X158.0Y-97.62
X158.0Y-100.16
X183.4Y-64.6
X183.4Y-67.14
X183.4Y-69.68
X183.4Y-72.22
X183.4Y-74.76
X183.4Y-77.3
X183.4Y-79.84
X183.4Y-82.38
X183.4Y-84.92
X183.4Y-87.46
X183.4Y-90.0
X183.4Y-92.54
X183.4Y-95.08
X183.4Y-97.62
X183.4Y-100.16
X196.2Y-66.6
X196.2Y-69.14
X196.2Y-71.68
T4
X145.8Y-90.12
X145.8Y-100.28
X151.2Y-90.12
X151.2Y-100.28
X166.465Y-111.825
X171.545Y-111.825
M30
