%TF.GenerationSoftware,KiCad,Pcbnew,8.0.7*%
%TF.CreationDate,2025-02-18T12:36:28+05:30*%
%TF.ProjectId,DS18B20_ESP32Node,44533138-4232-4305-9f45-535033324e6f,rev?*%
%TF.SameCoordinates,Original*%
%TF.FileFunction,Copper,L2,Bot*%
%TF.FilePolarity,Positive*%
%FSLAX46Y46*%
G04 Gerber Fmt 4.6, Leading zero omitted, Abs format (unit mm)*
G04 Created by KiCad (PCBNEW 8.0.7) date 2025-02-18 12:36:28*
%MOMM*%
%LPD*%
G01*
G04 APERTURE LIST*
G04 Aperture macros list*
%AMRoundRect*
0 Rectangle with rounded corners*
0 $1 Rounding radius*
0 $2 $3 $4 $5 $6 $7 $8 $9 X,Y pos of 4 corners*
0 Add a 4 corners polygon primitive as box body*
4,1,4,$2,$3,$4,$5,$6,$7,$8,$9,$2,$3,0*
0 Add four circle primitives for the rounded corners*
1,1,$1+$1,$2,$3*
1,1,$1+$1,$4,$5*
1,1,$1+$1,$6,$7*
1,1,$1+$1,$8,$9*
0 Add four rect primitives between the rounded corners*
20,1,$1+$1,$2,$3,$4,$5,0*
20,1,$1+$1,$4,$5,$6,$7,0*
20,1,$1+$1,$6,$7,$8,$9,0*
20,1,$1+$1,$8,$9,$2,$3,0*%
G04 Aperture macros list end*
%TA.AperFunction,ComponentPad*%
%ADD10R,1.700000X1.700000*%
%TD*%
%TA.AperFunction,ComponentPad*%
%ADD11O,1.700000X1.700000*%
%TD*%
%TA.AperFunction,ComponentPad*%
%ADD12R,2.200000X2.200000*%
%TD*%
%TA.AperFunction,ComponentPad*%
%ADD13O,2.200000X2.200000*%
%TD*%
%TA.AperFunction,ComponentPad*%
%ADD14C,1.600000*%
%TD*%
%TA.AperFunction,ComponentPad*%
%ADD15O,1.600000X1.600000*%
%TD*%
%TA.AperFunction,ComponentPad*%
%ADD16R,1.800000X1.800000*%
%TD*%
%TA.AperFunction,ComponentPad*%
%ADD17C,1.800000*%
%TD*%
%TA.AperFunction,ComponentPad*%
%ADD18RoundRect,0.250000X0.750000X-0.600000X0.750000X0.600000X-0.750000X0.600000X-0.750000X-0.600000X0*%
%TD*%
%TA.AperFunction,ComponentPad*%
%ADD19O,2.000000X1.700000*%
%TD*%
%TA.AperFunction,ComponentPad*%
%ADD20R,2.100000X2.100000*%
%TD*%
%TA.AperFunction,ComponentPad*%
%ADD21C,2.100000*%
%TD*%
%TA.AperFunction,Conductor*%
%ADD22C,0.350000*%
%TD*%
G04 APERTURE END LIST*
D10*
%TO.P,J7,1,Pin_1*%
%TO.N,+3.3V*%
X145900000Y-69580000D03*
D11*
%TO.P,J7,2,Pin_2*%
%TO.N,Net-(J4-Pin_2)*%
X145900000Y-67040000D03*
%TO.P,J7,3,Pin_3*%
%TO.N,GND*%
X145900000Y-64500000D03*
%TD*%
D12*
%TO.P,D1,1,K*%
%TO.N,Net-(D1-K)*%
X145800000Y-100280000D03*
D13*
%TO.P,D1,2,A*%
%TO.N,+3.3V*%
X145800000Y-90120000D03*
%TD*%
D14*
%TO.P,R1,1*%
%TO.N,GND*%
X201900000Y-111000000D03*
D15*
%TO.P,R1,2*%
%TO.N,Net-(D3-K)*%
X201900000Y-100840000D03*
%TD*%
D14*
%TO.P,R2,1*%
%TO.N,Net-(D4-K)*%
X196440000Y-100780000D03*
D15*
%TO.P,R2,2*%
%TO.N,GND*%
X196440000Y-110940000D03*
%TD*%
D10*
%TO.P,J5,1,Pin_1*%
%TO.N,unconnected-(J5-Pin_1-Pad1)*%
X183400000Y-64600000D03*
D11*
%TO.P,J5,2,Pin_2*%
%TO.N,unconnected-(J5-Pin_2-Pad2)*%
X183400000Y-67140000D03*
%TO.P,J5,3,Pin_3*%
%TO.N,unconnected-(J5-Pin_3-Pad3)*%
X183400000Y-69680000D03*
%TO.P,J5,4,Pin_4*%
%TO.N,unconnected-(J5-Pin_4-Pad4)*%
X183400000Y-72220000D03*
%TO.P,J5,5,Pin_5*%
%TO.N,Net-(J5-Pin_5)*%
X183400000Y-74760000D03*
%TO.P,J5,6,Pin_6*%
%TO.N,unconnected-(J5-Pin_6-Pad6)*%
X183400000Y-77300000D03*
%TO.P,J5,7,Pin_7*%
%TO.N,unconnected-(J5-Pin_7-Pad7)*%
X183400000Y-79840000D03*
%TO.P,J5,8,Pin_8*%
%TO.N,unconnected-(J5-Pin_8-Pad8)*%
X183400000Y-82380000D03*
%TO.P,J5,9,Pin_9*%
%TO.N,unconnected-(J5-Pin_9-Pad9)*%
X183400000Y-84920000D03*
%TO.P,J5,10,Pin_10*%
%TO.N,unconnected-(J5-Pin_10-Pad10)*%
X183400000Y-87460000D03*
%TO.P,J5,11,Pin_11*%
%TO.N,unconnected-(J5-Pin_11-Pad11)*%
X183400000Y-90000000D03*
%TO.P,J5,12,Pin_12*%
%TO.N,Net-(D3-A)*%
X183400000Y-92540000D03*
%TO.P,J5,13,Pin_13*%
%TO.N,Net-(D4-A)*%
X183400000Y-95080000D03*
%TO.P,J5,14,Pin_14*%
%TO.N,GND*%
X183400000Y-97620000D03*
%TO.P,J5,15,Pin_15*%
%TO.N,unconnected-(J5-Pin_15-Pad15)*%
X183400000Y-100160000D03*
%TD*%
D10*
%TO.P,J4,1,Pin_1*%
%TO.N,unconnected-(J4-Pin_1-Pad1)*%
X158000000Y-64600000D03*
D11*
%TO.P,J4,2,Pin_2*%
%TO.N,Net-(J4-Pin_2)*%
X158000000Y-67140000D03*
%TO.P,J4,3,Pin_3*%
%TO.N,unconnected-(J4-Pin_3-Pad3)*%
X158000000Y-69680000D03*
%TO.P,J4,4,Pin_4*%
%TO.N,unconnected-(J4-Pin_4-Pad4)*%
X158000000Y-72220000D03*
%TO.P,J4,5,Pin_5*%
%TO.N,unconnected-(J4-Pin_5-Pad5)*%
X158000000Y-74760000D03*
%TO.P,J4,6,Pin_6*%
%TO.N,unconnected-(J4-Pin_6-Pad6)*%
X158000000Y-77300000D03*
%TO.P,J4,7,Pin_7*%
%TO.N,unconnected-(J4-Pin_7-Pad7)*%
X158000000Y-79840000D03*
%TO.P,J4,8,Pin_8*%
%TO.N,unconnected-(J4-Pin_8-Pad8)*%
X158000000Y-82380000D03*
%TO.P,J4,9,Pin_9*%
%TO.N,unconnected-(J4-Pin_9-Pad9)*%
X158000000Y-84920000D03*
%TO.P,J4,10,Pin_10*%
%TO.N,unconnected-(J4-Pin_10-Pad10)*%
X158000000Y-87460000D03*
%TO.P,J4,11,Pin_11*%
%TO.N,Net-(D2-K)*%
X158000000Y-90000000D03*
%TO.P,J4,12,Pin_12*%
%TO.N,unconnected-(J4-Pin_12-Pad12)*%
X158000000Y-92540000D03*
%TO.P,J4,13,Pin_13*%
%TO.N,unconnected-(J4-Pin_13-Pad13)*%
X158000000Y-95080000D03*
%TO.P,J4,14,Pin_14*%
%TO.N,GND*%
X158000000Y-97620000D03*
%TO.P,J4,15,Pin_15*%
%TO.N,Net-(J1-Pin_3)*%
X158000000Y-100160000D03*
%TD*%
D12*
%TO.P,D2,1,K*%
%TO.N,Net-(D2-K)*%
X151200000Y-90120000D03*
D13*
%TO.P,D2,2,A*%
%TO.N,Net-(D1-K)*%
X151200000Y-100280000D03*
%TD*%
D10*
%TO.P,J6,1,Pin_1*%
%TO.N,+3.3V*%
X196200000Y-66600000D03*
D11*
%TO.P,J6,2,Pin_2*%
%TO.N,Net-(J5-Pin_5)*%
X196200000Y-69140000D03*
%TO.P,J6,3,Pin_3*%
%TO.N,GND*%
X196200000Y-71680000D03*
%TD*%
D16*
%TO.P,D4,1,K*%
%TO.N,Net-(D4-K)*%
X196400000Y-92600000D03*
D17*
%TO.P,D4,2,A*%
%TO.N,Net-(D4-A)*%
X193860000Y-92600000D03*
%TD*%
D16*
%TO.P,D3,1,K*%
%TO.N,Net-(D3-K)*%
X196275000Y-84600000D03*
D17*
%TO.P,D3,2,A*%
%TO.N,Net-(D3-A)*%
X193735000Y-84600000D03*
%TD*%
D18*
%TO.P,J2,1,Pin_1*%
%TO.N,+3.3V*%
X153475000Y-112250000D03*
D19*
%TO.P,J2,2,Pin_2*%
%TO.N,GND*%
X153475000Y-109750000D03*
%TD*%
D20*
%TO.P,J3,1,Pin_1*%
%TO.N,+3.3V*%
X171545000Y-111825000D03*
D21*
%TO.P,J3,2,Pin_2*%
%TO.N,GND*%
X166465000Y-111825000D03*
%TD*%
D10*
%TO.P,J1,1,Pin_1*%
%TO.N,+3.3V*%
X142800000Y-114725000D03*
D11*
%TO.P,J1,2,Pin_2*%
X142800000Y-112185000D03*
%TO.P,J1,3,Pin_3*%
%TO.N,Net-(J1-Pin_3)*%
X142800000Y-109645000D03*
%TD*%
D22*
%TO.N,Net-(D1-K)*%
X145800000Y-100280000D02*
X151200000Y-100280000D01*
%TO.N,+3.3V*%
X142180000Y-90120000D02*
X137600000Y-94700000D01*
X168645000Y-114725000D02*
X171545000Y-111825000D01*
X202930000Y-114250000D02*
X173970000Y-114250000D01*
X137600000Y-106985000D02*
X142800000Y-112185000D01*
X153410000Y-112185000D02*
X153475000Y-112250000D01*
X142800000Y-112185000D02*
X153410000Y-112185000D01*
X137600000Y-94700000D02*
X137600000Y-106985000D01*
X145900000Y-69580000D02*
X145900000Y-90020000D01*
X206860000Y-110320000D02*
X202930000Y-114250000D01*
X145900000Y-90020000D02*
X145800000Y-90120000D01*
X173970000Y-114250000D02*
X171545000Y-111825000D01*
X206860000Y-77260000D02*
X206860000Y-110320000D01*
X142800000Y-114725000D02*
X168645000Y-114725000D01*
X196200000Y-66600000D02*
X206860000Y-77260000D01*
X145800000Y-90120000D02*
X142180000Y-90120000D01*
%TO.N,Net-(D2-K)*%
X151200000Y-90120000D02*
X157880000Y-90120000D01*
X157880000Y-90120000D02*
X158000000Y-90000000D01*
%TO.N,Net-(D3-A)*%
X183400000Y-92540000D02*
X185795000Y-92540000D01*
X185795000Y-92540000D02*
X193735000Y-84600000D01*
%TO.N,Net-(D3-K)*%
X201900000Y-90225000D02*
X196275000Y-84600000D01*
X201900000Y-100840000D02*
X201900000Y-90225000D01*
%TO.N,Net-(D4-A)*%
X183400000Y-95080000D02*
X191380000Y-95080000D01*
X191380000Y-95080000D02*
X193860000Y-92600000D01*
%TO.N,Net-(D4-K)*%
X196400000Y-92600000D02*
X196400000Y-100740000D01*
X196400000Y-100740000D02*
X196440000Y-100780000D01*
%TO.N,Net-(J1-Pin_3)*%
X142800000Y-109645000D02*
X148515000Y-109645000D01*
X148515000Y-109645000D02*
X158000000Y-100160000D01*
%TO.N,GND*%
X156860000Y-109750000D02*
X160620000Y-105990000D01*
X185600000Y-61070000D02*
X188160000Y-63630000D01*
X156660000Y-59970000D02*
X160030000Y-59970000D01*
X160620000Y-100240000D02*
X158000000Y-97620000D01*
X188160000Y-63630000D02*
X188160000Y-66430000D01*
X183400000Y-97620000D02*
X196440000Y-110660000D01*
X183400000Y-97620000D02*
X178950000Y-93170000D01*
X181510000Y-61070000D02*
X185600000Y-61070000D01*
X162030000Y-93590000D02*
X158000000Y-97620000D01*
X196440000Y-110940000D02*
X201840000Y-110940000D01*
X162000000Y-61940000D02*
X162000000Y-64240000D01*
X188160000Y-66430000D02*
X193410000Y-71680000D01*
X166465000Y-111825000D02*
X180670000Y-97620000D01*
X152130000Y-64500000D02*
X156660000Y-59970000D01*
X160620000Y-105990000D02*
X160620000Y-100240000D01*
X180670000Y-97620000D02*
X183400000Y-97620000D01*
X162000000Y-64240000D02*
X162030000Y-64270000D01*
X178950000Y-93170000D02*
X178950000Y-63630000D01*
X153475000Y-109750000D02*
X156860000Y-109750000D01*
X178950000Y-63630000D02*
X181510000Y-61070000D01*
X145900000Y-64500000D02*
X152130000Y-64500000D01*
X153475000Y-109750000D02*
X164390000Y-109750000D01*
X160030000Y-59970000D02*
X162000000Y-61940000D01*
X164390000Y-109750000D02*
X166465000Y-111825000D01*
X201840000Y-110940000D02*
X201900000Y-111000000D01*
X162030000Y-64270000D02*
X162030000Y-93590000D01*
X196540000Y-111040000D02*
X196440000Y-110940000D01*
X196440000Y-110660000D02*
X196440000Y-110940000D01*
X193410000Y-71680000D02*
X196200000Y-71680000D01*
%TO.N,Net-(J5-Pin_5)*%
X198500000Y-72970000D02*
X198500000Y-71440000D01*
X198500000Y-71440000D02*
X196200000Y-69140000D01*
X196710000Y-74760000D02*
X198500000Y-72970000D01*
X183400000Y-74760000D02*
X196710000Y-74760000D01*
%TO.N,Net-(J4-Pin_2)*%
X157900000Y-67040000D02*
X158000000Y-67140000D01*
X145900000Y-67040000D02*
X157900000Y-67040000D01*
%TD*%
M02*
