%TF.GenerationSoftware,KiCad,Pcbnew,8.0.7*%
%TF.CreationDate,2025-02-18T12:36:28+05:30*%
%TF.ProjectId,DS18B20_ESP32Node,44533138-4232-4305-9f45-535033324e6f,rev?*%
%TF.SameCoordinates,Original*%
%TF.FileFunction,Profile,NP*%
%FSLAX46Y46*%
G04 Gerber Fmt 4.6, Leading zero omitted, Abs format (unit mm)*
G04 Created by KiCad (PCBNEW 8.0.7) date 2025-02-18 12:36:28*
%MOMM*%
%LPD*%
G01*
G04 APERTURE LIST*
%ADD10C,0.150000*%
%TA.AperFunction,Profile*%
%ADD11C,0.050000*%
%TD*%
G04 APERTURE END LIST*
D10*
X124504819Y-92987856D02*
X124504819Y-93178332D01*
X124504819Y-93178332D02*
X124552438Y-93273570D01*
X124552438Y-93273570D02*
X124600057Y-93321189D01*
X124600057Y-93321189D02*
X124742914Y-93416427D01*
X124742914Y-93416427D02*
X124933390Y-93464046D01*
X124933390Y-93464046D02*
X125314342Y-93464046D01*
X125314342Y-93464046D02*
X125409580Y-93416427D01*
X125409580Y-93416427D02*
X125457200Y-93368808D01*
X125457200Y-93368808D02*
X125504819Y-93273570D01*
X125504819Y-93273570D02*
X125504819Y-93083094D01*
X125504819Y-93083094D02*
X125457200Y-92987856D01*
X125457200Y-92987856D02*
X125409580Y-92940237D01*
X125409580Y-92940237D02*
X125314342Y-92892618D01*
X125314342Y-92892618D02*
X125076247Y-92892618D01*
X125076247Y-92892618D02*
X124981009Y-92940237D01*
X124981009Y-92940237D02*
X124933390Y-92987856D01*
X124933390Y-92987856D02*
X124885771Y-93083094D01*
X124885771Y-93083094D02*
X124885771Y-93273570D01*
X124885771Y-93273570D02*
X124933390Y-93368808D01*
X124933390Y-93368808D02*
X124981009Y-93416427D01*
X124981009Y-93416427D02*
X125076247Y-93464046D01*
X124504819Y-92273570D02*
X124504819Y-92178332D01*
X124504819Y-92178332D02*
X124552438Y-92083094D01*
X124552438Y-92083094D02*
X124600057Y-92035475D01*
X124600057Y-92035475D02*
X124695295Y-91987856D01*
X124695295Y-91987856D02*
X124885771Y-91940237D01*
X124885771Y-91940237D02*
X125123866Y-91940237D01*
X125123866Y-91940237D02*
X125314342Y-91987856D01*
X125314342Y-91987856D02*
X125409580Y-92035475D01*
X125409580Y-92035475D02*
X125457200Y-92083094D01*
X125457200Y-92083094D02*
X125504819Y-92178332D01*
X125504819Y-92178332D02*
X125504819Y-92273570D01*
X125504819Y-92273570D02*
X125457200Y-92368808D01*
X125457200Y-92368808D02*
X125409580Y-92416427D01*
X125409580Y-92416427D02*
X125314342Y-92464046D01*
X125314342Y-92464046D02*
X125123866Y-92511665D01*
X125123866Y-92511665D02*
X124885771Y-92511665D01*
X124885771Y-92511665D02*
X124695295Y-92464046D01*
X124695295Y-92464046D02*
X124600057Y-92416427D01*
X124600057Y-92416427D02*
X124552438Y-92368808D01*
X124552438Y-92368808D02*
X124504819Y-92273570D01*
X125409580Y-91511665D02*
X125457200Y-91464046D01*
X125457200Y-91464046D02*
X125504819Y-91511665D01*
X125504819Y-91511665D02*
X125457200Y-91559284D01*
X125457200Y-91559284D02*
X125409580Y-91511665D01*
X125409580Y-91511665D02*
X125504819Y-91511665D01*
X124504819Y-90844999D02*
X124504819Y-90749761D01*
X124504819Y-90749761D02*
X124552438Y-90654523D01*
X124552438Y-90654523D02*
X124600057Y-90606904D01*
X124600057Y-90606904D02*
X124695295Y-90559285D01*
X124695295Y-90559285D02*
X124885771Y-90511666D01*
X124885771Y-90511666D02*
X125123866Y-90511666D01*
X125123866Y-90511666D02*
X125314342Y-90559285D01*
X125314342Y-90559285D02*
X125409580Y-90606904D01*
X125409580Y-90606904D02*
X125457200Y-90654523D01*
X125457200Y-90654523D02*
X125504819Y-90749761D01*
X125504819Y-90749761D02*
X125504819Y-90844999D01*
X125504819Y-90844999D02*
X125457200Y-90940237D01*
X125457200Y-90940237D02*
X125409580Y-90987856D01*
X125409580Y-90987856D02*
X125314342Y-91035475D01*
X125314342Y-91035475D02*
X125123866Y-91083094D01*
X125123866Y-91083094D02*
X124885771Y-91083094D01*
X124885771Y-91083094D02*
X124695295Y-91035475D01*
X124695295Y-91035475D02*
X124600057Y-90987856D01*
X124600057Y-90987856D02*
X124552438Y-90940237D01*
X124552438Y-90940237D02*
X124504819Y-90844999D01*
X124504819Y-89606904D02*
X124504819Y-90083094D01*
X124504819Y-90083094D02*
X124981009Y-90130713D01*
X124981009Y-90130713D02*
X124933390Y-90083094D01*
X124933390Y-90083094D02*
X124885771Y-89987856D01*
X124885771Y-89987856D02*
X124885771Y-89749761D01*
X124885771Y-89749761D02*
X124933390Y-89654523D01*
X124933390Y-89654523D02*
X124981009Y-89606904D01*
X124981009Y-89606904D02*
X125076247Y-89559285D01*
X125076247Y-89559285D02*
X125314342Y-89559285D01*
X125314342Y-89559285D02*
X125409580Y-89606904D01*
X125409580Y-89606904D02*
X125457200Y-89654523D01*
X125457200Y-89654523D02*
X125504819Y-89749761D01*
X125504819Y-89749761D02*
X125504819Y-89987856D01*
X125504819Y-89987856D02*
X125457200Y-90083094D01*
X125457200Y-90083094D02*
X125409580Y-90130713D01*
X124504819Y-88940237D02*
X124504819Y-88844999D01*
X124504819Y-88844999D02*
X124552438Y-88749761D01*
X124552438Y-88749761D02*
X124600057Y-88702142D01*
X124600057Y-88702142D02*
X124695295Y-88654523D01*
X124695295Y-88654523D02*
X124885771Y-88606904D01*
X124885771Y-88606904D02*
X125123866Y-88606904D01*
X125123866Y-88606904D02*
X125314342Y-88654523D01*
X125314342Y-88654523D02*
X125409580Y-88702142D01*
X125409580Y-88702142D02*
X125457200Y-88749761D01*
X125457200Y-88749761D02*
X125504819Y-88844999D01*
X125504819Y-88844999D02*
X125504819Y-88940237D01*
X125504819Y-88940237D02*
X125457200Y-89035475D01*
X125457200Y-89035475D02*
X125409580Y-89083094D01*
X125409580Y-89083094D02*
X125314342Y-89130713D01*
X125314342Y-89130713D02*
X125123866Y-89178332D01*
X125123866Y-89178332D02*
X124885771Y-89178332D01*
X124885771Y-89178332D02*
X124695295Y-89130713D01*
X124695295Y-89130713D02*
X124600057Y-89083094D01*
X124600057Y-89083094D02*
X124552438Y-89035475D01*
X124552438Y-89035475D02*
X124504819Y-88940237D01*
X124504819Y-87987856D02*
X124504819Y-87892618D01*
X124504819Y-87892618D02*
X124552438Y-87797380D01*
X124552438Y-87797380D02*
X124600057Y-87749761D01*
X124600057Y-87749761D02*
X124695295Y-87702142D01*
X124695295Y-87702142D02*
X124885771Y-87654523D01*
X124885771Y-87654523D02*
X125123866Y-87654523D01*
X125123866Y-87654523D02*
X125314342Y-87702142D01*
X125314342Y-87702142D02*
X125409580Y-87749761D01*
X125409580Y-87749761D02*
X125457200Y-87797380D01*
X125457200Y-87797380D02*
X125504819Y-87892618D01*
X125504819Y-87892618D02*
X125504819Y-87987856D01*
X125504819Y-87987856D02*
X125457200Y-88083094D01*
X125457200Y-88083094D02*
X125409580Y-88130713D01*
X125409580Y-88130713D02*
X125314342Y-88178332D01*
X125314342Y-88178332D02*
X125123866Y-88225951D01*
X125123866Y-88225951D02*
X124885771Y-88225951D01*
X124885771Y-88225951D02*
X124695295Y-88178332D01*
X124695295Y-88178332D02*
X124600057Y-88130713D01*
X124600057Y-88130713D02*
X124552438Y-88083094D01*
X124552438Y-88083094D02*
X124504819Y-87987856D01*
X125504819Y-86464046D02*
X124838152Y-86464046D01*
X124933390Y-86464046D02*
X124885771Y-86416427D01*
X124885771Y-86416427D02*
X124838152Y-86321189D01*
X124838152Y-86321189D02*
X124838152Y-86178332D01*
X124838152Y-86178332D02*
X124885771Y-86083094D01*
X124885771Y-86083094D02*
X124981009Y-86035475D01*
X124981009Y-86035475D02*
X125504819Y-86035475D01*
X124981009Y-86035475D02*
X124885771Y-85987856D01*
X124885771Y-85987856D02*
X124838152Y-85892618D01*
X124838152Y-85892618D02*
X124838152Y-85749761D01*
X124838152Y-85749761D02*
X124885771Y-85654522D01*
X124885771Y-85654522D02*
X124981009Y-85606903D01*
X124981009Y-85606903D02*
X125504819Y-85606903D01*
X125504819Y-85130713D02*
X124838152Y-85130713D01*
X124933390Y-85130713D02*
X124885771Y-85083094D01*
X124885771Y-85083094D02*
X124838152Y-84987856D01*
X124838152Y-84987856D02*
X124838152Y-84844999D01*
X124838152Y-84844999D02*
X124885771Y-84749761D01*
X124885771Y-84749761D02*
X124981009Y-84702142D01*
X124981009Y-84702142D02*
X125504819Y-84702142D01*
X124981009Y-84702142D02*
X124885771Y-84654523D01*
X124885771Y-84654523D02*
X124838152Y-84559285D01*
X124838152Y-84559285D02*
X124838152Y-84416428D01*
X124838152Y-84416428D02*
X124885771Y-84321189D01*
X124885771Y-84321189D02*
X124981009Y-84273570D01*
X124981009Y-84273570D02*
X125504819Y-84273570D01*
D11*
X128520000Y-58820000D02*
X125613580Y-58820000D01*
X128520000Y-118870000D02*
X125613580Y-118870000D01*
X126200000Y-58820000D02*
X126200000Y-118870000D01*
X126200000Y-58820000D02*
X126200000Y-118870000D01*
X126200000Y-58820000D02*
X126786421Y-59946504D01*
X126200000Y-58820000D02*
X125613579Y-59946504D01*
X126200000Y-118870000D02*
X125613579Y-117743496D01*
X126200000Y-118870000D02*
X126786421Y-117743496D01*
D10*
X166261429Y-55353390D02*
X166166191Y-55305771D01*
X166166191Y-55305771D02*
X166118572Y-55258152D01*
X166118572Y-55258152D02*
X166070953Y-55162914D01*
X166070953Y-55162914D02*
X166070953Y-55115295D01*
X166070953Y-55115295D02*
X166118572Y-55020057D01*
X166118572Y-55020057D02*
X166166191Y-54972438D01*
X166166191Y-54972438D02*
X166261429Y-54924819D01*
X166261429Y-54924819D02*
X166451905Y-54924819D01*
X166451905Y-54924819D02*
X166547143Y-54972438D01*
X166547143Y-54972438D02*
X166594762Y-55020057D01*
X166594762Y-55020057D02*
X166642381Y-55115295D01*
X166642381Y-55115295D02*
X166642381Y-55162914D01*
X166642381Y-55162914D02*
X166594762Y-55258152D01*
X166594762Y-55258152D02*
X166547143Y-55305771D01*
X166547143Y-55305771D02*
X166451905Y-55353390D01*
X166451905Y-55353390D02*
X166261429Y-55353390D01*
X166261429Y-55353390D02*
X166166191Y-55401009D01*
X166166191Y-55401009D02*
X166118572Y-55448628D01*
X166118572Y-55448628D02*
X166070953Y-55543866D01*
X166070953Y-55543866D02*
X166070953Y-55734342D01*
X166070953Y-55734342D02*
X166118572Y-55829580D01*
X166118572Y-55829580D02*
X166166191Y-55877200D01*
X166166191Y-55877200D02*
X166261429Y-55924819D01*
X166261429Y-55924819D02*
X166451905Y-55924819D01*
X166451905Y-55924819D02*
X166547143Y-55877200D01*
X166547143Y-55877200D02*
X166594762Y-55829580D01*
X166594762Y-55829580D02*
X166642381Y-55734342D01*
X166642381Y-55734342D02*
X166642381Y-55543866D01*
X166642381Y-55543866D02*
X166594762Y-55448628D01*
X166594762Y-55448628D02*
X166547143Y-55401009D01*
X166547143Y-55401009D02*
X166451905Y-55353390D01*
X166975715Y-54924819D02*
X167594762Y-54924819D01*
X167594762Y-54924819D02*
X167261429Y-55305771D01*
X167261429Y-55305771D02*
X167404286Y-55305771D01*
X167404286Y-55305771D02*
X167499524Y-55353390D01*
X167499524Y-55353390D02*
X167547143Y-55401009D01*
X167547143Y-55401009D02*
X167594762Y-55496247D01*
X167594762Y-55496247D02*
X167594762Y-55734342D01*
X167594762Y-55734342D02*
X167547143Y-55829580D01*
X167547143Y-55829580D02*
X167499524Y-55877200D01*
X167499524Y-55877200D02*
X167404286Y-55924819D01*
X167404286Y-55924819D02*
X167118572Y-55924819D01*
X167118572Y-55924819D02*
X167023334Y-55877200D01*
X167023334Y-55877200D02*
X166975715Y-55829580D01*
X168023334Y-55829580D02*
X168070953Y-55877200D01*
X168070953Y-55877200D02*
X168023334Y-55924819D01*
X168023334Y-55924819D02*
X167975715Y-55877200D01*
X167975715Y-55877200D02*
X168023334Y-55829580D01*
X168023334Y-55829580D02*
X168023334Y-55924819D01*
X168404286Y-54924819D02*
X169023333Y-54924819D01*
X169023333Y-54924819D02*
X168690000Y-55305771D01*
X168690000Y-55305771D02*
X168832857Y-55305771D01*
X168832857Y-55305771D02*
X168928095Y-55353390D01*
X168928095Y-55353390D02*
X168975714Y-55401009D01*
X168975714Y-55401009D02*
X169023333Y-55496247D01*
X169023333Y-55496247D02*
X169023333Y-55734342D01*
X169023333Y-55734342D02*
X168975714Y-55829580D01*
X168975714Y-55829580D02*
X168928095Y-55877200D01*
X168928095Y-55877200D02*
X168832857Y-55924819D01*
X168832857Y-55924819D02*
X168547143Y-55924819D01*
X168547143Y-55924819D02*
X168451905Y-55877200D01*
X168451905Y-55877200D02*
X168404286Y-55829580D01*
X169880476Y-55258152D02*
X169880476Y-55924819D01*
X169642381Y-54877200D02*
X169404286Y-55591485D01*
X169404286Y-55591485D02*
X170023333Y-55591485D01*
X170594762Y-54924819D02*
X170690000Y-54924819D01*
X170690000Y-54924819D02*
X170785238Y-54972438D01*
X170785238Y-54972438D02*
X170832857Y-55020057D01*
X170832857Y-55020057D02*
X170880476Y-55115295D01*
X170880476Y-55115295D02*
X170928095Y-55305771D01*
X170928095Y-55305771D02*
X170928095Y-55543866D01*
X170928095Y-55543866D02*
X170880476Y-55734342D01*
X170880476Y-55734342D02*
X170832857Y-55829580D01*
X170832857Y-55829580D02*
X170785238Y-55877200D01*
X170785238Y-55877200D02*
X170690000Y-55924819D01*
X170690000Y-55924819D02*
X170594762Y-55924819D01*
X170594762Y-55924819D02*
X170499524Y-55877200D01*
X170499524Y-55877200D02*
X170451905Y-55829580D01*
X170451905Y-55829580D02*
X170404286Y-55734342D01*
X170404286Y-55734342D02*
X170356667Y-55543866D01*
X170356667Y-55543866D02*
X170356667Y-55305771D01*
X170356667Y-55305771D02*
X170404286Y-55115295D01*
X170404286Y-55115295D02*
X170451905Y-55020057D01*
X170451905Y-55020057D02*
X170499524Y-54972438D01*
X170499524Y-54972438D02*
X170594762Y-54924819D01*
X171547143Y-54924819D02*
X171642381Y-54924819D01*
X171642381Y-54924819D02*
X171737619Y-54972438D01*
X171737619Y-54972438D02*
X171785238Y-55020057D01*
X171785238Y-55020057D02*
X171832857Y-55115295D01*
X171832857Y-55115295D02*
X171880476Y-55305771D01*
X171880476Y-55305771D02*
X171880476Y-55543866D01*
X171880476Y-55543866D02*
X171832857Y-55734342D01*
X171832857Y-55734342D02*
X171785238Y-55829580D01*
X171785238Y-55829580D02*
X171737619Y-55877200D01*
X171737619Y-55877200D02*
X171642381Y-55924819D01*
X171642381Y-55924819D02*
X171547143Y-55924819D01*
X171547143Y-55924819D02*
X171451905Y-55877200D01*
X171451905Y-55877200D02*
X171404286Y-55829580D01*
X171404286Y-55829580D02*
X171356667Y-55734342D01*
X171356667Y-55734342D02*
X171309048Y-55543866D01*
X171309048Y-55543866D02*
X171309048Y-55305771D01*
X171309048Y-55305771D02*
X171356667Y-55115295D01*
X171356667Y-55115295D02*
X171404286Y-55020057D01*
X171404286Y-55020057D02*
X171451905Y-54972438D01*
X171451905Y-54972438D02*
X171547143Y-54924819D01*
X173070953Y-55924819D02*
X173070953Y-55258152D01*
X173070953Y-55353390D02*
X173118572Y-55305771D01*
X173118572Y-55305771D02*
X173213810Y-55258152D01*
X173213810Y-55258152D02*
X173356667Y-55258152D01*
X173356667Y-55258152D02*
X173451905Y-55305771D01*
X173451905Y-55305771D02*
X173499524Y-55401009D01*
X173499524Y-55401009D02*
X173499524Y-55924819D01*
X173499524Y-55401009D02*
X173547143Y-55305771D01*
X173547143Y-55305771D02*
X173642381Y-55258152D01*
X173642381Y-55258152D02*
X173785238Y-55258152D01*
X173785238Y-55258152D02*
X173880477Y-55305771D01*
X173880477Y-55305771D02*
X173928096Y-55401009D01*
X173928096Y-55401009D02*
X173928096Y-55924819D01*
X174404286Y-55924819D02*
X174404286Y-55258152D01*
X174404286Y-55353390D02*
X174451905Y-55305771D01*
X174451905Y-55305771D02*
X174547143Y-55258152D01*
X174547143Y-55258152D02*
X174690000Y-55258152D01*
X174690000Y-55258152D02*
X174785238Y-55305771D01*
X174785238Y-55305771D02*
X174832857Y-55401009D01*
X174832857Y-55401009D02*
X174832857Y-55924819D01*
X174832857Y-55401009D02*
X174880476Y-55305771D01*
X174880476Y-55305771D02*
X174975714Y-55258152D01*
X174975714Y-55258152D02*
X175118571Y-55258152D01*
X175118571Y-55258152D02*
X175213810Y-55305771D01*
X175213810Y-55305771D02*
X175261429Y-55401009D01*
X175261429Y-55401009D02*
X175261429Y-55924819D01*
D11*
X129020000Y-58320000D02*
X129020000Y-56033580D01*
X212360000Y-58320000D02*
X212360000Y-56033580D01*
X129020000Y-56620000D02*
X212360000Y-56620000D01*
X129020000Y-56620000D02*
X212360000Y-56620000D01*
X129020000Y-56620000D02*
X130146504Y-56033579D01*
X129020000Y-56620000D02*
X130146504Y-57206421D01*
X212360000Y-56620000D02*
X211233496Y-57206421D01*
X212360000Y-56620000D02*
X211233496Y-56033579D01*
X129020000Y-58820000D02*
X212360000Y-58820000D01*
X212360000Y-118870000D01*
X129020000Y-118870000D01*
X129020000Y-58820000D01*
M02*
