%TF.GenerationSoftware,KiCad,Pcbnew,8.0.7*%
%TF.CreationDate,2025-02-18T12:36:28+05:30*%
%TF.ProjectId,DS18B20_ESP32Node,44533138-4232-4305-9f45-535033324e6f,rev?*%
%TF.SameCoordinates,Original*%
%TF.FileFunction,Soldermask,Bot*%
%TF.FilePolarity,Negative*%
%FSLAX46Y46*%
G04 Gerber Fmt 4.6, Leading zero omitted, Abs format (unit mm)*
G04 Created by KiCad (PCBNEW 8.0.7) date 2025-02-18 12:36:28*
%MOMM*%
%LPD*%
G01*
G04 APERTURE LIST*
G04 Aperture macros list*
%AMRoundRect*
0 Rectangle with rounded corners*
0 $1 Rounding radius*
0 $2 $3 $4 $5 $6 $7 $8 $9 X,Y pos of 4 corners*
0 Add a 4 corners polygon primitive as box body*
4,1,4,$2,$3,$4,$5,$6,$7,$8,$9,$2,$3,0*
0 Add four circle primitives for the rounded corners*
1,1,$1+$1,$2,$3*
1,1,$1+$1,$4,$5*
1,1,$1+$1,$6,$7*
1,1,$1+$1,$8,$9*
0 Add four rect primitives between the rounded corners*
20,1,$1+$1,$2,$3,$4,$5,0*
20,1,$1+$1,$4,$5,$6,$7,0*
20,1,$1+$1,$6,$7,$8,$9,0*
20,1,$1+$1,$8,$9,$2,$3,0*%
G04 Aperture macros list end*
%ADD10R,1.700000X1.700000*%
%ADD11O,1.700000X1.700000*%
%ADD12R,2.200000X2.200000*%
%ADD13O,2.200000X2.200000*%
%ADD14C,1.600000*%
%ADD15O,1.600000X1.600000*%
%ADD16R,1.800000X1.800000*%
%ADD17C,1.800000*%
%ADD18RoundRect,0.250000X0.750000X-0.600000X0.750000X0.600000X-0.750000X0.600000X-0.750000X-0.600000X0*%
%ADD19O,2.000000X1.700000*%
%ADD20R,2.100000X2.100000*%
%ADD21C,2.100000*%
G04 APERTURE END LIST*
D10*
%TO.C,J7*%
X145900000Y-69580000D03*
D11*
X145900000Y-67040000D03*
X145900000Y-64500000D03*
%TD*%
D12*
%TO.C,D1*%
X145800000Y-100280000D03*
D13*
X145800000Y-90120000D03*
%TD*%
D14*
%TO.C,R1*%
X201900000Y-111000000D03*
D15*
X201900000Y-100840000D03*
%TD*%
D14*
%TO.C,R2*%
X196440000Y-100780000D03*
D15*
X196440000Y-110940000D03*
%TD*%
D10*
%TO.C,J5*%
X183400000Y-64600000D03*
D11*
X183400000Y-67140000D03*
X183400000Y-69680000D03*
X183400000Y-72220000D03*
X183400000Y-74760000D03*
X183400000Y-77300000D03*
X183400000Y-79840000D03*
X183400000Y-82380000D03*
X183400000Y-84920000D03*
X183400000Y-87460000D03*
X183400000Y-90000000D03*
X183400000Y-92540000D03*
X183400000Y-95080000D03*
X183400000Y-97620000D03*
X183400000Y-100160000D03*
%TD*%
D10*
%TO.C,J4*%
X158000000Y-64600000D03*
D11*
X158000000Y-67140000D03*
X158000000Y-69680000D03*
X158000000Y-72220000D03*
X158000000Y-74760000D03*
X158000000Y-77300000D03*
X158000000Y-79840000D03*
X158000000Y-82380000D03*
X158000000Y-84920000D03*
X158000000Y-87460000D03*
X158000000Y-90000000D03*
X158000000Y-92540000D03*
X158000000Y-95080000D03*
X158000000Y-97620000D03*
X158000000Y-100160000D03*
%TD*%
D12*
%TO.C,D2*%
X151200000Y-90120000D03*
D13*
X151200000Y-100280000D03*
%TD*%
D10*
%TO.C,J6*%
X196200000Y-66600000D03*
D11*
X196200000Y-69140000D03*
X196200000Y-71680000D03*
%TD*%
D16*
%TO.C,D4*%
X196400000Y-92600000D03*
D17*
X193860000Y-92600000D03*
%TD*%
D16*
%TO.C,D3*%
X196275000Y-84600000D03*
D17*
X193735000Y-84600000D03*
%TD*%
D18*
%TO.C,J2*%
X153475000Y-112250000D03*
D19*
X153475000Y-109750000D03*
%TD*%
D20*
%TO.C,J3*%
X171545000Y-111825000D03*
D21*
X166465000Y-111825000D03*
%TD*%
D10*
%TO.C,J1*%
X142800000Y-114725000D03*
D11*
X142800000Y-112185000D03*
X142800000Y-109645000D03*
%TD*%
M02*
